HIERARCHY
ROOT Hips
{
	OFFSET 0.000000 0.000000 0.000000
	CHANNELS 6 Xposition Yposition Zposition Zrotation Yrotation Xrotation 
	JOINT LHipJoint
	{
		OFFSET 0.000000 0.000000 0.000000
		CHANNELS 3 Zrotation Yrotation Xrotation
		JOINT LeftUpLeg
		{
			OFFSET 1.363060 -1.794630 0.839290
			CHANNELS 3 Zrotation Yrotation Xrotation
			JOINT LeftLeg
			{
				OFFSET 2.448110 -6.726130 0.000000
				CHANNELS 3 Zrotation Yrotation Xrotation
				JOINT LeftFoot
				{
					OFFSET 2.562200 -7.039590 0.000000
					CHANNELS 3 Zrotation Yrotation Xrotation
					JOINT LeftToeBase
					{
						OFFSET 0.157640 -0.433110 2.322550
						CHANNELS 3 Zrotation Yrotation Xrotation
						End Site
						{
							OFFSET 0.000000 0.000000 0.000000
						}
					}
				}
			}
		}
	}
	JOINT RHipJoint
	{
		OFFSET 0.000000 0.000000 0.000000
		CHANNELS 3 Zrotation Yrotation Xrotation
		JOINT RightUpLeg
		{
			OFFSET -1.305520 -1.794630 0.839290
			CHANNELS 3 Zrotation Yrotation Xrotation
			JOINT RightLeg
			{
				OFFSET -2.542530 -6.985550 0.000000
				CHANNELS 3 Zrotation Yrotation Xrotation
				JOINT RightFoot
				{
					OFFSET -2.568260 -7.056230 0.000000
					CHANNELS 3 Zrotation Yrotation Xrotation
					JOINT RightToeBase
					{
						OFFSET -0.164730 -0.452590 2.363150
						CHANNELS 3 Zrotation Yrotation Xrotation
						End Site
						{
							OFFSET 0.000000 0.000000 0.000000
						}
					}
				}
			}
		}
	}
	JOINT LowerBack
	{
		OFFSET 0.000000 0.000000 0.000000
		CHANNELS 3 Zrotation Yrotation Xrotation
		JOINT Spine
		{
			OFFSET 0.028270 2.035590 -0.193380
			CHANNELS 3 Zrotation Yrotation Xrotation
			JOINT Spine1
			{
				OFFSET 0.056720 2.048850 -0.042750
				CHANNELS 3 Zrotation Yrotation Xrotation
				JOINT Neck
				{
					OFFSET 0.000000 0.000000 0.000000
					CHANNELS 3 Zrotation Yrotation Xrotation
					JOINT Neck1
					{
						OFFSET -0.054170 1.746240 0.172020
						CHANNELS 3 Zrotation Yrotation Xrotation
						JOINT Head
						{
							OFFSET 0.104070 1.761360 -0.123970
							CHANNELS 3 Zrotation Yrotation Xrotation
							End Site
							{
								OFFSET 0.000000 0.000000 0.000000
							}
						}
					}
				}
				JOINT LeftShoulder
				{
					OFFSET 0.000000 0.000000 0.000000
					CHANNELS 3 Zrotation Yrotation Xrotation
					JOINT LeftArm
					{
						OFFSET 3.362410 1.200890 -0.311210
						CHANNELS 3 Zrotation Yrotation Xrotation
						JOINT LeftForeArm
						{
							OFFSET 4.983000 -0.000000 -0.000000
							CHANNELS 3 Zrotation Yrotation Xrotation
							JOINT LeftHand
							{
								OFFSET 3.483560 -0.000000 -0.000000
								CHANNELS 3 Zrotation Yrotation Xrotation
								JOINT LeftFingerBase
								{
									OFFSET 0.000000 0.000000 0.000000
									CHANNELS 3 Zrotation Yrotation Xrotation
									JOINT LeftHandIndex1
									{
										OFFSET 0.715260 -0.000000 -0.000000
										CHANNELS 3 Zrotation Yrotation Xrotation
										End Site
										{
											OFFSET 0.000000 0.000000 0.000000
										}
									}
								}
								JOINT LThumb
								{
									OFFSET 0.000000 0.000000 0.000000
									CHANNELS 3 Zrotation Yrotation Xrotation
									End Site
									{
										OFFSET 0.000000 0.000000 0.000000
									}
								}
							}
						}
					}
				}
				JOINT RightShoulder
				{
					OFFSET 0.000000 0.000000 0.000000
					CHANNELS 3 Zrotation Yrotation Xrotation
					JOINT RightArm
					{
						OFFSET -3.136600 1.374050 -0.404650
						CHANNELS 3 Zrotation Yrotation Xrotation
						JOINT RightForeArm
						{
							OFFSET -5.241900 -0.000000 -0.000000
							CHANNELS 3 Zrotation Yrotation Xrotation
							JOINT RightHand
							{
								OFFSET -3.444170 -0.000000 -0.000000
								CHANNELS 3 Zrotation Yrotation Xrotation
								JOINT RightFingerBase
								{
									OFFSET 0.000000 0.000000 0.000000
									CHANNELS 3 Zrotation Yrotation Xrotation
									JOINT RightHandIndex1
									{
										OFFSET -0.622530 -0.000000 -0.000000
										CHANNELS 3 Zrotation Yrotation Xrotation
										End Site
										{
											OFFSET 0.000000 0.000000 0.000000
										}
									}
								}
								JOINT RThumb
								{
									OFFSET 0.000000 0.000000 0.000000
									CHANNELS 3 Zrotation Yrotation Xrotation
									End Site
									{
										OFFSET 0.000000 0.000000 0.000000
									}
								}
							}
						}
					}
				}
			}
		}
	}
}
MOTION
Frames: 10
Frame Time: 0.008333
-0.896179 17.622581 -0.119717 1.957749 -2.124527 4.071473 5.421608 5.092886 0.750758 -22.680617 -5.191077 -1.842086 -0.361440 2.220990 10.787722 -2.278643 14.864410 -12.275283 0.761800 -5.573900 -15.552900 -8.152294 -5.413578 -0.423946 29.349356 5.618556 -5.009347 -1.793566 -5.328939 19.825897 1.068015 -14.223351 -17.347617 -0.093400 1.970900 -5.425300 -0.391161 2.309889 4.438390 1.590659 3.036241 1.065930 1.267818 1.549438 4.146202 -7.178993 -5.338667 -3.108064 2.582531 -7.131749 15.063539 1.232900 -3.672800 4.961300 1.136735 -3.427674 2.688429 -78.487054 15.327218 49.555138 106.320176 -57.892830 -73.719998 1.028317 0.633377 -5.403298 5.292233 24.788940 1.732300 -7.125000 0.000000 0.000000 -25.662900 52.450700 -4.972500 -1.470501 3.489700 2.084064 77.748611 -13.086666 34.124327 -94.220557 57.320571 -57.560171 0.220789 0.074995 19.679306 9.391266 10.180164 1.618700 7.125000 0.000000 0.000000 25.063900 -20.085700 16.576100 
-0.898994 17.621027 -0.119329 2.005588 -2.099243 4.085982 5.424068 5.091359 0.751143 -22.729969 -5.239556 -1.856970 -0.358990 2.230904 10.812563 -2.274353 14.830275 -12.221412 0.725500 -5.442500 -15.175000 -8.150607 -5.414150 -0.423306 29.295970 5.592765 -5.070106 -1.803596 -5.353361 19.892619 1.063101 -14.200385 -17.344687 -0.095900 1.996700 -5.496600 -0.423360 2.313992 4.418738 1.582642 3.041260 1.068209 1.274741 1.551204 4.161929 -7.228035 -5.346774 -3.134851 2.610899 -7.141785 15.089154 1.251600 -3.679500 4.981300 1.134160 -3.429016 2.687511 -78.487247 15.355268 49.598521 106.348248 -57.891300 -73.747222 1.034722 0.623538 -5.404634 5.358109 24.638632 1.747800 -7.125000 0.000000 0.000000 -25.523500 52.335700 -4.867700 -1.470498 3.488738 2.082813 77.746239 -13.147393 34.168908 -94.348909 57.304164 -57.683057 0.216701 0.073375 19.626042 9.333993 10.237832 1.618700 7.125000 0.000000 0.000000 25.018800 -20.031500 16.573800 
-0.902878 17.617435 -0.120203 2.053827 -2.097617 4.105395 5.427889 5.090268 0.747927 -22.774685 -5.251994 -1.865758 -0.358661 2.231974 10.814945 -2.267454 14.785724 -12.173268 0.691600 -5.316500 -14.813600 -8.150211 -5.411892 -0.415631 29.254874 5.656191 -5.150267 -1.817931 -5.392230 19.996956 1.058781 -14.213393 -17.405538 -0.097200 2.010800 -5.535600 -0.454739 2.344923 4.403537 1.558740 3.082363 1.069797 1.249406 1.571528 4.167275 -7.213783 -5.364514 -3.125467 2.662758 -7.172610 15.094278 1.269800 -3.691800 4.985500 1.130860 -3.430601 2.688026 -78.411705 15.356907 49.682008 106.370495 -57.887280 -73.767072 1.041093 0.613675 -5.399691 5.433486 24.480475 1.766500 -7.125000 0.000000 0.000000 -25.371100 52.215000 -4.757400 -1.473571 3.490449 2.081861 77.844883 -13.192275 34.125689 -94.444419 57.293746 -57.771367 0.210263 0.074734 19.574450 9.287699 10.368415 1.632200 7.125000 0.000000 0.000000 24.970500 -19.912000 16.610200 
-0.904917 17.616852 -0.120785 2.075831 -2.085070 4.117855 5.430506 5.089472 0.749051 -22.798217 -5.308459 -1.866475 -0.358175 2.239607 10.834129 -2.283859 14.883398 -12.244442 0.724000 -5.437000 -15.159200 -8.146870 -5.414826 -0.415595 29.228853 5.581465 -5.228646 -1.828082 -5.417265 20.065979 1.039705 -14.116382 -17.411625 -0.100400 2.043600 -5.626000 -0.428238 2.365927 4.405874 1.537311 3.110318 1.065245 1.194457 1.588520 4.159157 -7.176537 -5.364284 -3.122673 2.681150 -7.175730 15.104444 1.271200 -3.690500 4.989000 1.129581 -3.430011 2.688314 -78.335682 15.382385 49.737895 106.410160 -57.879421 -73.807121 1.029668 0.603877 -5.405114 5.228789 24.362340 1.680400 -7.125000 0.000000 0.000000 -25.485700 52.082000 -4.694900 -1.476193 3.493604 2.081135 77.941226 -13.239869 34.096208 -94.519488 57.284959 -57.839292 0.205548 0.071928 19.596754 9.180440 10.420609 1.622100 7.125000 0.000000 0.000000 24.894700 -19.863000 16.579100 
-0.906568 17.617337 -0.122436 2.078511 -2.050501 4.119969 5.429766 5.090367 0.749998 -22.790011 -5.337858 -1.863496 -0.361370 2.231661 10.808962 -2.300151 14.966322 -12.274869 0.757200 -5.557400 -15.505400 -8.145877 -5.419045 -0.415483 29.232462 5.492355 -5.312278 -1.839175 -5.445514 20.145470 1.027137 -14.055941 -17.422256 -0.103600 2.075100 -5.713200 -0.410048 2.361618 4.427941 1.544512 3.104880 1.066584 1.195693 1.586618 4.153197 -7.151495 -5.355886 -3.147924 2.639675 -7.158784 15.118439 1.249100 -3.681900 4.995500 1.130231 -3.429355 2.688200 -78.333306 15.393264 49.739817 106.460389 -57.871768 -73.858748 1.016674 0.593694 -5.499215 5.026147 24.241374 1.596300 -7.125000 0.000000 0.000000 -25.597000 51.949200 -4.630900 -1.472416 3.496790 2.080438 77.945444 -13.293340 34.121803 -94.655067 57.266967 -57.970911 0.203834 0.069376 19.639854 9.125879 10.450645 1.617400 7.125000 0.000000 0.000000 24.854800 -19.834200 16.564600 
-0.909578 17.617240 -0.126514 2.082171 -1.942922 4.097909 5.429746 5.091568 0.749416 -22.775818 -5.363438 -1.831652 -0.366481 2.208458 10.744172 -2.294797 14.898828 -12.139856 0.732000 -5.466400 -15.243700 -8.144836 -5.418817 -0.414448 29.243574 5.479731 -5.332964 -1.846113 -5.465882 20.205375 1.019388 -14.076016 -17.543642 -0.093400 1.971400 -5.426500 -0.383524 2.345485 4.499514 1.546487 3.085616 1.069751 1.176370 1.578662 4.121633 -7.087549 -5.370794 -3.119075 2.599490 -7.178591 15.069511 1.222900 -3.689100 4.966300 1.130582 -3.429694 2.689654 -78.316801 15.375983 49.764261 106.498720 -57.864674 -73.897585 0.988324 0.610125 -5.564807 4.648673 24.527577 1.469200 -7.125000 0.000000 0.000000 -26.080300 52.127900 -4.847900 -1.470207 3.501661 2.081260 77.984192 -13.319142 34.105462 -94.778518 57.251687 -58.091504 0.204011 0.070667 19.638955 9.167215 10.497610 1.632200 7.125000 0.000000 0.000000 24.873400 -19.791200 16.607000 
-0.913656 17.615687 -0.131077 2.217393 -1.781959 4.001158 5.433622 5.093375 0.755217 -22.910905 -5.457517 -1.733712 -0.366301 2.206721 10.750007 -2.278598 14.809649 -12.083547 0.702500 -5.357200 -14.930300 -8.136279 -5.416963 -0.431436 29.102966 5.339296 -5.278709 -1.850786 -5.468515 20.221129 1.039618 -14.168888 -17.502646 -0.097900 2.017400 -5.553700 -0.493334 2.302812 4.652657 1.531112 3.033988 1.081504 1.192403 1.550440 4.070511 -7.078048 -5.364035 -3.120161 2.606267 -7.170529 15.064889 1.223300 -3.684000 4.965700 1.127037 -3.431800 2.690109 -78.302467 15.373774 49.783047 106.573583 -57.854431 -73.964810 0.955590 0.648986 -5.645491 4.264656 25.141721 1.353000 -7.125000 0.000000 0.000000 -26.757200 52.576600 -5.296300 -1.470309 3.505845 2.081777 77.992039 -13.349240 34.153395 -94.896439 57.235075 -58.204660 0.201024 0.064908 19.612436 9.051492 10.487381 1.610400 7.125000 0.000000 0.000000 24.800900 -19.797600 16.543500 
-0.917151 17.615590 -0.133893 2.298820 -1.682915 3.937968 5.436787 5.091674 0.758435 -22.988713 -5.546378 -1.697920 -0.360441 2.230238 10.817373 -2.289487 14.865028 -12.094357 0.754800 -5.548700 -15.480400 -8.132274 -5.413636 -0.442389 29.024316 5.292368 -5.212079 -1.851314 -5.464844 20.217177 1.049858 -14.228746 -17.508785 -0.092100 1.957600 -5.388400 -0.543576 2.275746 4.728859 1.527109 3.000697 1.102182 1.205983 1.532125 4.071103 -7.099957 -5.345186 -3.118999 2.604068 -7.143817 15.067260 1.226600 -3.672100 4.966200 1.122932 -3.431955 2.691696 -78.316741 15.390256 49.741651 106.684542 -57.841935 -74.067328 0.939226 0.655791 -5.687888 4.018578 25.277362 1.262600 -7.125000 0.000000 0.000000 -27.050500 52.648700 -5.411500 -1.467441 3.505051 2.080924 77.962605 -13.371036 34.228690 -95.077099 57.211648 -58.380824 0.199920 0.059739 19.545999 8.985826 10.464885 1.595600 7.125000 0.000000 0.000000 24.761300 -19.814700 16.500500 
-0.920452 17.615493 -0.138553 2.194962 -1.631960 3.937910 5.434758 5.089851 0.755214 -22.871471 -5.505895 -1.784252 -0.348707 2.267340 10.904290 -2.328174 14.994693 -11.940161 0.869800 -5.946300 -16.628800 -8.138203 -5.413608 -0.437267 29.166277 5.355582 -5.178609 -1.847472 -5.462400 20.214805 1.038092 -14.225302 -17.639882 -0.081600 1.842900 -5.071600 -0.407552 2.268589 4.761590 1.558936 2.991757 1.115765 1.198210 1.531617 4.077467 -7.160270 -5.339756 -3.096203 2.609801 -7.135394 15.025497 1.241900 -3.671500 4.947700 1.121382 -3.431478 2.693585 -78.391101 15.400947 49.680544 106.778105 -57.836548 -74.148701 0.954260 0.655447 -5.661200 4.213307 25.256642 1.337300 -7.125000 0.000000 0.000000 -26.871400 52.664300 -5.381900 -1.462722 3.501623 2.080325 77.891126 -13.347694 34.297286 -95.217845 57.193861 -58.520397 0.202203 0.055914 19.464235 8.986127 10.396390 1.585100 7.125000 0.000000 0.000000 24.770400 -19.874700 16.470300 
-0.926569 17.614910 -0.147680 2.126477 -1.562137 3.917703 5.434277 5.089208 0.752461 -22.779839 -5.436020 -1.909012 -0.334009 2.310988 11.007022 -2.350879 15.017625 -11.660323 0.953800 -6.219200 -17.421800 -8.145112 -5.409375 -0.428459 29.294139 5.495123 -5.127474 -1.842811 -5.459135 20.208820 1.048580 -14.346376 -17.775601 -0.074700 1.763400 -4.852100 -0.330131 2.246032 4.905276 1.578380 2.964842 1.104382 1.187633 1.522643 3.983571 -7.172643 -5.308792 -3.049720 2.607313 -7.096067 14.973545 1.246000 -3.653200 4.918700 1.122054 -3.432940 2.694981 -78.431334 15.408615 49.616587 106.825448 -57.831969 -74.187881 0.961456 0.660961 -5.680801 4.337696 25.323732 1.389400 -7.125000 0.000000 0.000000 -26.802000 52.741300 -5.418900 -1.461357 3.504960 2.079911 77.889147 -13.349290 34.361046 -95.319371 57.179835 -58.619877 0.205356 0.055850 19.431844 9.048291 10.364301 1.590800 7.125000 0.000000 0.000000 24.813800 -19.903500 16.487600 
